<svg width="20" height="20" viewBox="0 0 20 20" fill="none" xmlns="http://www.w3.org/2000/svg">
<g clip-path="url(#clip0_45_667)">
<path d="M9.028 3.17383C9.82 3.17383 10.558 3.32383 11.242 3.62383C11.938 3.91183 12.538 4.30783 13.042 4.81183C13.546 5.31583 13.942 5.91583 14.23 6.61183C14.53 7.29583 14.68 8.03383 14.68 8.82583C14.68 9.61783 14.53 10.3558 14.23 11.0398C13.942 11.7238 13.546 12.3178 13.042 12.8218C12.538 13.3258 11.938 13.7278 11.242 14.0278C10.558 14.3158 9.82 14.4598 9.028 14.4598C8.236 14.4598 7.492 14.3158 6.796 14.0278C6.1 13.7278 5.488 13.3258 4.96 12.8218C4.432 12.3178 4.012 11.7238 3.7 11.0398C3.4 10.3558 3.25 9.61783 3.25 8.82583C3.25 8.03383 3.4 7.29583 3.7 6.61183C4.012 5.91583 4.432 5.31583 4.96 4.81183C5.488 4.30783 6.1 3.91183 6.796 3.62383C7.492 3.32383 8.236 3.17383 9.028 3.17383ZM9.028 4.34383C8.44 4.34383 7.888 4.44583 7.372 4.64983C6.856 4.85383 6.4 5.12983 6.004 5.47783C5.62 5.82583 5.302 6.23983 5.05 6.71983C4.798 7.19983 4.636 7.72183 4.564 8.28583H13.51C13.438 7.72183 13.27 7.19983 13.006 6.71983C12.742 6.23983 12.406 5.82583 11.998 5.47783C11.602 5.12983 11.146 4.85383 10.63 4.64983C10.126 4.44583 9.592 4.34383 9.028 4.34383ZM9.028 13.2898C9.592 13.2898 10.126 13.1938 10.63 13.0018C11.146 12.7978 11.602 12.5218 11.998 12.1738C12.406 11.8258 12.742 11.4238 13.006 10.9678C13.27 10.4998 13.438 10.0018 13.51 9.47383H4.564C4.636 10.0018 4.798 10.4998 5.05 10.9678C5.302 11.4238 5.62 11.8258 6.004 12.1738C6.4 12.5218 6.856 12.7978 7.372 13.0018C7.888 13.1938 8.44 13.2898 9.028 13.2898Z" fill="#F5F5F5"/>
</g>
<defs>
<clipPath id="clip0_45_667">
<rect width="16" height="16" fill="white" transform="translate(3 3)"/>
</clipPath>
</defs>
</svg>
