<svg width="125" height="125" viewBox="0 0 125 125" fill="none" xmlns="http://www.w3.org/2000/svg">
<circle cx="62.5" cy="62.5" r="60" fill="#EA2424" stroke="#F5F5F5" stroke-width="5"/>
<path d="M36.1245 31.4002C33.0714 33.2111 27.0591 40.1136 27 41.9245V44.9318C27 48.7264 30.554 52.077 33.7778 52.077C37.6511 52.077 40.888 48.8642 40.888 45.0499C40.888 48.8642 43.9959 52.077 47.8801 52.077C51.7535 52.077 54.7717 48.8642 54.7717 45.0499C54.7717 48.8642 58.0873 52.077 61.9606 52.077H62.0306C65.9149 52.077 69.2283 48.8642 69.2283 45.0499C69.2283 48.8642 72.2487 52.077 76.122 52.077C79.9954 52.077 83.1142 48.8642 83.1142 45.0499C83.1142 48.8642 86.3401 52.077 90.2113 52.077C93.446 52.077 97 48.7264 97 44.9318V41.9245C96.93 40.1136 90.9286 33.2111 87.8645 31.4002C78.3747 31.0591 71.8025 31 62.0066 31C52.1996 31.0109 38.8387 31.1597 36.1377 31.4002H36.1245ZM54.7257 50.2836C54.3255 50.9572 53.8837 51.5258 53.3588 52.0267V52.0376C51.8891 53.4614 49.8857 54.3494 47.6746 54.3494C45.4525 54.3494 43.4491 53.4592 41.9903 52.0245C41.4545 51.5105 41.0542 50.955 40.6781 50.3033C40.3128 50.9528 39.8032 51.5105 39.2674 52.0245C37.7977 53.4592 35.7943 54.3494 33.5831 54.3494C33.5831 54.3494 33.5831 54.3494 33.5722 54.3494C33.3098 54.3494 33.0364 54.2706 32.8089 54.1897C32.5027 57.4375 32.3649 60.5345 32.319 62.8003V62.8112C32.3081 63.9638 32.3081 64.8955 32.2949 66.2056C32.3649 73.0184 31.6235 88.2711 35.3044 92.0198C40.9996 93.3408 51.4801 93.9445 61.9803 93.9554H61.9912C72.5046 93.9445 82.972 93.3408 88.6672 92.0198C92.3481 88.2733 91.6066 73.0184 91.6766 66.2056C91.6657 64.8955 91.6657 63.9638 91.6526 62.8112V62.8003C91.6066 60.5345 91.4798 57.4375 91.1627 54.1897C90.9461 54.2706 90.6618 54.3494 90.3994 54.3494H90.3884C88.1773 54.3494 86.1739 53.4592 84.7042 52.0245H84.7151C84.1793 51.5105 83.6675 50.955 83.3044 50.3033H83.2935C82.9283 50.9528 82.5171 51.5105 81.9922 52.0245C80.5334 53.4592 78.53 54.3494 76.3079 54.3494C74.0968 54.3494 72.0934 53.4592 70.6237 52.0245C70.0988 51.5237 69.6548 50.9419 69.2786 50.3033L69.2546 50.2683C68.8784 50.9419 68.4235 51.5215 67.9095 52.0245C66.4398 53.4592 64.4364 54.3494 62.2253 54.3494H62.2143C62.1465 54.3494 62.0656 54.3494 61.9869 54.3384C61.9081 54.3494 61.8272 54.3494 61.7485 54.3494C61.7485 54.3494 61.7485 54.3494 61.7375 54.3494C59.5264 54.3494 57.523 53.4592 56.0664 52.0245C55.5415 51.5237 55.0975 50.9419 54.7345 50.3033L54.7104 50.2683L54.7257 50.2836ZM48.8818 57.8378C51.1936 57.8487 53.2451 57.8378 55.7952 60.6176C57.7986 60.4142 59.896 60.3114 61.9912 60.3114C64.0865 60.3114 66.1839 60.4142 68.1873 60.6176C70.7396 57.8378 72.7889 57.8378 75.1007 57.8378H75.1116C76.2051 57.8378 80.5793 57.8378 83.6216 66.3937L86.8913 78.1362C89.3168 86.8736 86.1149 87.0923 82.13 87.0923C76.2073 86.8736 72.9267 82.5694 72.9267 78.263C69.6461 78.812 65.8165 79.0744 61.9912 79.0744C58.166 79.0744 54.3364 78.812 51.0667 78.263C51.0667 82.5694 47.7861 86.8736 41.8635 87.0923C37.8655 87.0814 34.6636 86.8736 37.089 78.1362L40.3587 66.3937C43.4119 57.8378 47.7861 57.8378 48.8796 57.8378H48.8818ZM61.9934 64.5696C61.9825 64.5696 55.7624 70.2998 54.6361 72.3273L58.7128 72.1676V75.7216C58.7128 75.8944 60.3553 75.8244 61.9934 75.7457C63.6316 75.8244 65.2631 75.8944 65.2631 75.7216V72.1676L69.3508 72.3273C68.2245 70.2998 61.9934 64.5696 61.9934 64.5696Z" fill="#F5F5F5"/>
</svg>
