<svg width="200" height="200" viewBox="0 0 200 200" fill="none" xmlns="http://www.w3.org/2000/svg">
<circle cx="100" cy="100" r="100" fill="#F5F5F5"/>
<circle cx="100" cy="100" r="92" fill="#EA2424"/>
<path fill-rule="evenodd" clip-rule="evenodd" d="M40.5472 137.889C29.4869 134.726 27.6088 128.199 32.6644 124.438C37.3392 120.95 45.2881 118.347 45.2881 118.347L78.1138 106.621V119.981L54.4907 128.473C50.3132 129.996 49.6736 132.107 53.0694 133.219C56.4652 134.331 62.6019 134.016 66.7743 132.513L78.1037 128.382V140.335C77.388 140.467 76.5809 140.594 75.8449 140.716C64.0236 142.644 51.9109 141.674 40.5472 137.889ZM109.803 139.28L146.638 126.133C150.821 124.61 151.46 122.509 148.065 121.397C144.669 120.286 138.532 120.6 134.36 122.108L109.813 130.767V116.966L111.234 116.484C116.78 114.689 122.497 113.477 128.294 112.865C138.268 111.763 150.481 113.017 160.064 116.651C170.871 120.072 172.089 125.113 169.343 128.585C166.597 132.057 159.866 134.528 159.866 134.528L109.813 152.543L109.803 139.28ZM114.112 53.7153C133.507 60.4104 140.08 68.745 140.08 87.5258C140.08 105.824 128.842 112.763 114.569 105.834V71.7093C114.569 67.7095 113.838 64.0244 110.102 62.9788C107.239 62.055 105.463 64.73 105.463 68.7298V154.132L82.5603 146.822V45C92.3009 46.8172 106.488 51.0911 114.112 53.695V53.7153ZM163.348 147.188C163.365 147.322 163.349 147.458 163.301 147.585C163.253 147.711 163.175 147.824 163.074 147.914C162.823 148.069 162.531 148.143 162.236 148.127H160.475V146.305H162.343C162.552 146.296 162.76 146.335 162.952 146.416C163.087 146.491 163.197 146.604 163.268 146.742C163.338 146.879 163.366 147.034 163.348 147.188ZM164.612 151.34C164.562 151.309 164.519 151.268 164.486 151.219C164.454 151.169 164.433 151.114 164.424 151.056C164.387 150.889 164.37 150.719 164.373 150.548L164.338 149.721C164.352 149.419 164.274 149.119 164.115 148.863C164.008 148.736 163.879 148.629 163.734 148.548C163.924 148.424 164.088 148.264 164.216 148.076C164.39 147.778 164.477 147.436 164.465 147.091C164.49 146.763 164.413 146.435 164.245 146.151C164.077 145.868 163.826 145.643 163.526 145.508C163.145 145.35 162.735 145.276 162.323 145.289H159.374V151.736H160.475V149.091H162.211C162.441 149.078 162.671 149.113 162.886 149.193C163.005 149.261 163.102 149.361 163.166 149.483C163.23 149.604 163.258 149.741 163.247 149.878L163.297 150.893C163.3 151.063 163.315 151.233 163.343 151.401C163.359 151.485 163.386 151.567 163.424 151.644L163.465 151.721H164.693V151.345L164.612 151.34ZM157.054 148.65C157.05 147.375 157.55 146.151 158.445 145.244C158.881 144.796 159.403 144.44 159.979 144.197C160.556 143.954 161.175 143.829 161.8 143.829C162.425 143.829 163.044 143.954 163.621 144.197C164.197 144.44 164.719 144.796 165.155 145.244C165.817 145.917 166.267 146.77 166.449 147.696C166.632 148.623 166.539 149.582 166.182 150.457C165.825 151.331 165.22 152.081 164.441 152.615C163.662 153.149 162.744 153.444 161.8 153.462C161.175 153.462 160.556 153.337 159.98 153.095C159.404 152.853 158.882 152.498 158.445 152.05C157.551 151.144 157.051 149.922 157.054 148.65ZM161.8 154.436C162.551 154.437 163.295 154.287 163.988 153.995C164.68 153.703 165.307 153.275 165.83 152.736C166.9 151.643 167.5 150.174 167.5 148.645C167.5 147.115 166.9 145.646 165.83 144.553C165.306 144.016 164.679 143.589 163.987 143.298C163.294 143.007 162.551 142.857 161.8 142.858C160.665 142.879 159.561 143.233 158.625 143.875C157.689 144.517 156.962 145.419 156.533 146.47C156.104 147.521 155.993 148.675 156.213 149.788C156.432 150.902 156.974 151.926 157.77 152.736C158.293 153.275 158.92 153.703 159.612 153.995C160.305 154.287 161.049 154.437 161.8 154.436Z" fill="#F5F5F5"/>
</svg>
