<svg width="508" height="115" viewBox="0 0 508 115" fill="none" xmlns="http://www.w3.org/2000/svg">
<path d="M129.06 111.434C128.128 110.486 127.495 109.286 127.237 107.982C126.98 106.676 127.11 105.324 127.613 104.092C128.115 102.86 128.968 101.803 130.065 101.05C131.163 100.298 132.456 99.8833 133.787 99.8582L133.796 99.858L133.805 99.858C134.689 99.8571 135.565 100.033 136.38 100.376C137.195 100.719 137.934 101.222 138.551 101.855C139.804 103.134 140.505 104.854 140.505 106.645C140.505 108.434 139.804 110.153 138.553 111.433M129.06 111.434L138.55 111.435C138.551 111.434 138.552 111.434 138.553 111.433M129.06 111.434C129.676 112.068 130.414 112.572 131.229 112.916C132.044 113.26 132.921 113.437 133.806 113.436M129.06 111.434L133.806 113.436M138.553 111.433C137.936 112.068 137.198 112.572 136.382 112.916C135.567 113.26 134.691 113.437 133.806 113.436M138.553 111.433L133.806 113.436M16.9688 75.4007L16.9561 75.4049L16.8851 75.4286C16.8234 75.4493 16.7332 75.4799 16.6173 75.5198C16.3857 75.5996 16.0512 75.7169 15.6358 75.8685C14.8056 76.1715 13.6499 76.612 12.3456 77.1633C9.7543 78.2585 6.50845 79.8187 4.07206 81.636C2.67635 82.6747 1.69376 83.9537 1.25676 85.3904C0.815863 86.8399 0.956541 88.3676 1.66942 89.8268C3.0708 92.6951 6.62856 95.2312 12.2571 96.8442C23.7685 100.675 36.0375 101.656 48.0115 99.7029L48.0138 99.7026C48.1901 99.6734 48.3725 99.6436 48.5579 99.6133C49.1339 99.5192 49.7401 99.4202 50.2906 99.3187L51.1093 99.1678V98.3353V86.3816V84.9525L49.7667 85.4421L38.4411 89.5725C38.4403 89.5728 38.4395 89.5731 38.4386 89.5734C36.4653 90.2836 33.9897 90.7241 31.5849 90.8477C29.1669 90.9721 26.9209 90.7709 25.3861 90.2685C24.6112 90.0148 24.1965 89.7423 24.0087 89.5408C23.8706 89.3926 23.8886 89.335 23.9014 89.2943C23.9021 89.2921 23.9028 89.29 23.9034 89.2879C23.9412 89.162 24.1055 88.8829 24.62 88.5111C25.1159 88.1528 25.8479 87.7738 26.8366 87.4133C26.8373 87.413 26.838 87.4127 26.8388 87.4125L50.4577 78.922L51.1195 78.6842V77.981V64.6213V63.2022L49.7831 63.6795L16.9688 75.4007ZM81.4721 96.3377L80.8077 96.5748L80.8082 97.2803L80.8184 110.544L80.8195 111.965L82.157 111.484L132.21 93.4694L132.216 93.4672L131.872 92.5285C132.216 93.4672 132.217 93.4671 132.217 93.467L132.217 93.4668L132.219 93.4663L132.224 93.4645L132.241 93.4582L132.303 93.4349C132.356 93.4146 132.433 93.385 132.532 93.3463C132.729 93.269 133.011 93.1554 133.357 93.0085C134.048 92.7151 135 92.2867 136.041 91.746C138.087 90.6836 140.62 89.1175 142.133 87.205C142.913 86.2181 143.446 85.0767 143.572 83.8376C143.699 82.5882 143.405 81.3072 142.642 80.0729C141.143 77.6497 137.865 75.4408 132.398 73.7063C122.657 70.0181 110.298 68.7549 100.193 69.8703C94.3279 70.4896 88.5431 71.7169 82.9318 73.5323L82.925 73.5344L82.9183 73.5367L81.4971 74.0189L80.8184 74.2492V74.9659V88.7673V90.1804L82.151 89.7103L106.698 81.0509L106.705 81.0483C108.679 80.3352 111.155 79.8933 113.561 79.769C115.978 79.644 118.224 79.8451 119.759 80.3475C120.535 80.6014 120.95 80.8735 121.137 81.0745C121.274 81.2209 121.256 81.2767 121.244 81.3148C121.243 81.3172 121.242 81.3194 121.242 81.3216C121.204 81.4459 121.04 81.724 120.524 82.0954C120.028 82.453 119.295 82.8315 118.305 83.1921C118.304 83.1925 118.303 83.1929 118.302 83.1933L81.4721 96.3377ZM85.5745 63.8345V64.4607L86.1378 64.7341C93.4678 68.2922 100.256 68.3947 105.249 64.9645C110.222 61.5481 113.086 54.8477 113.086 45.5258C113.086 36.0293 111.426 28.9938 107.166 23.4773C103.019 18.1058 96.5161 14.3187 87.1176 11.0051V10.9798L86.4408 10.7487C78.7992 8.13871 64.5596 3.84712 54.7493 2.01696L53.5659 1.79619V3V104.822V105.553L54.2619 105.775L77.1643 113.084L78.4683 113.5V112.132V26.7298C78.4683 24.8455 78.8919 23.4255 79.5101 22.6137C79.8093 22.2207 80.1391 21.9874 80.4817 21.877C80.8219 21.7674 81.2528 21.7537 81.8006 21.9305L81.8193 21.9365L81.8382 21.9418C83.373 22.3714 84.2715 23.3131 84.8196 24.6224C85.3907 25.9865 85.5745 27.7451 85.5745 29.7093V63.8345ZM134.576 105.099L134.583 105.096L134.576 105.099ZM133.481 108.091H134.217H134.245L134.262 108.09L134.303 108.926C134.307 109.14 134.327 109.354 134.362 109.565L134.364 109.573L134.365 109.581C134.397 109.758 134.455 109.929 134.535 110.091L134.541 110.103L134.548 110.115L134.588 110.191L134.668 110.342C134.385 110.415 134.092 110.455 133.796 110.462C133.69 110.461 133.585 110.457 133.481 110.448V109.736V108.091ZM130.379 105.103V108.192C130.169 107.711 130.058 107.187 130.06 106.652L130.06 106.646C130.058 106.11 130.169 105.585 130.379 105.103ZM137.424 105.671C137.443 105.743 137.459 105.816 137.474 105.89C137.602 106.541 137.559 107.214 137.35 107.841L137.344 107.717C137.355 107.317 137.269 106.921 137.095 106.563C137.255 106.285 137.366 105.983 137.424 105.671Z" fill="#EA2424" stroke="#F5F5F5" stroke-width="2"/>
<path d="M494.655 91.5134H495.654L495.655 90.5149L495.664 84.8386H496.812V90.5134V91.5134H497.812H498.777H499.777V90.5134V89.8605L500.136 90.8534L500.375 91.5134H501.076H501.332L501.409 91.7282L501.485 91.5134H501.696H502.396L502.635 90.8547L503.005 89.8369V90.5185V91.5185H504.005H505.02H506.02V90.5185V82.9046V81.9046H505.02H503.498H502.793L502.556 82.5684L501.414 85.7658L500.278 82.565L500.041 81.8996H499.335H497.812H496.812V81.9046H491.447H490.447V82.9046V83.8386V84.8386H491.447H492.681V90.5134V91.5134H493.681H494.655ZM482.671 23.7959H481.671H388.275H387.275V24.7959V50.1044V50.1144L387.274 50.1333C387.274 50.1587 387.274 50.1932 387.275 50.2364C387.276 50.3226 387.279 50.4433 387.288 50.5936C387.306 50.894 387.346 51.3148 387.435 51.8163C387.612 52.8156 387.986 54.1588 388.783 55.5102C390.417 58.2829 393.71 60.8906 400.081 60.8906L457.17 60.8906L457.178 60.8905C459.276 60.8734 461.355 61.2959 463.28 62.1308C466.254 63.458 469.454 66.0675 469.454 71.3671C469.454 76.2077 467.14 78.8927 464.855 80.4081C462.94 81.6439 460.706 82.2929 458.426 82.2752H458.419H388.275H387.275V83.2752V90.3814V91.3814H388.275H466.489H466.509L466.53 91.3806L466.489 90.3814C466.53 91.3806 466.53 91.3806 466.531 91.3805L466.533 91.3805L466.537 91.3803L466.551 91.3796L466.597 91.3772C466.637 91.3749 466.692 91.3714 466.763 91.3661C466.906 91.3554 467.109 91.3376 467.366 91.3083C467.879 91.2499 468.604 91.1457 469.472 90.9618C471.204 90.5949 473.525 89.906 475.857 88.6134C480.573 85.9988 485.255 80.9424 485.255 71.4027C485.255 66.5508 483.833 62.8662 481.731 60.0941C479.64 57.3357 476.916 55.5325 474.375 54.3586L474.373 54.3577C471.09 52.8495 467.517 52.0752 463.904 52.0889L407.325 52.0888L407.312 52.089C406.537 52.0992 405.771 51.9178 405.083 51.5611C404.129 51.0414 403.076 50.0432 403.076 47.9318V32.8057H481.671H482.671V31.8057V24.7959V23.7959ZM270.723 82.2498L269.722 82.2494V83.2498V90.356V91.356H270.722H310.36C315.337 91.4075 320.165 89.6594 323.956 86.4334C325.931 84.7574 327.506 82.6611 328.566 80.298C329.625 77.9385 330.144 75.3724 330.085 72.787L330.085 42.592L330.085 42.5796C330.066 41.0791 330.389 39.594 331.028 38.2362C331.666 36.8807 332.602 35.6874 333.768 34.746C335.412 33.4609 337.446 32.7763 339.532 32.8057H339.546H374.108H375.108V31.8057V24.7959V23.7959H374.108H332.948H332.94L332.932 23.796L332.948 24.7959C332.932 23.796 332.931 23.796 332.93 23.796L332.929 23.7961L332.924 23.7962L332.91 23.7965L332.864 23.7978C332.824 23.7991 332.768 23.8013 332.697 23.805C332.554 23.8123 332.35 23.8254 332.093 23.849C331.579 23.896 330.852 23.9847 329.983 24.1519C328.248 24.4854 325.923 25.1359 323.586 26.4088C321.246 27.6843 318.883 29.5911 317.11 32.4338C315.333 35.2802 314.182 39.0093 314.182 43.8711L314.182 72.0778L314.182 72.0913C314.211 74.2128 313.639 76.299 312.532 78.109L312.527 78.1174C311.747 79.4221 310.632 80.4945 309.298 81.2238C307.964 81.9531 306.459 82.3127 304.94 82.2655L304.924 82.265L304.909 82.265L270.723 82.2498ZM179.194 23.7959H178.194V24.7959V31.8057V32.8057H179.194L249.85 32.8057L249.859 32.8057C251.676 32.7902 253.474 33.1761 255.124 33.9359C256.42 34.5446 257.757 35.4573 258.769 36.8152C259.772 38.1616 260.495 39.9982 260.495 42.5361C260.495 47.3518 257.702 49.7278 255.124 50.9435C253.444 51.7137 251.616 52.1048 249.768 52.0889H249.759H197.36C194.104 52.0592 190.886 52.7893 187.962 54.2211L187.962 54.2211L187.953 54.2254C183.309 56.5559 178.194 62.0242 178.194 70.956V90.2444V91.2444H179.194H192.792H193.792V90.2444L193.792 71.0423L193.792 71.0351C193.784 69.9119 193.987 68.7971 194.39 67.7487C195.449 65.0331 198.025 60.8906 204.051 60.8906H256.888C258.757 60.9004 260.618 60.6506 262.418 60.1482L262.423 60.1469C264.938 59.4313 268.349 58.0261 271.141 55.2861C273.961 52.5193 276.093 48.4455 276.093 42.5361C276.093 37.9802 274.956 34.485 273.202 31.8202C271.452 29.1614 269.125 27.3866 266.827 26.2042C264.533 25.0238 262.251 24.4244 260.55 24.1188C259.697 23.9656 258.984 23.8851 258.48 23.8428C258.228 23.8216 258.028 23.81 257.889 23.8036C257.819 23.8004 257.764 23.7985 257.725 23.7974L257.68 23.7963L257.666 23.7961L257.662 23.796L257.66 23.796C257.66 23.796 257.659 23.796 257.647 24.7959L257.659 23.7959H257.647H179.194Z" fill="#EA2424" stroke="#F5F5F5" stroke-width="2"/>
</svg>
