<svg width="125" height="125" viewBox="0 0 125 125" fill="none" xmlns="http://www.w3.org/2000/svg">
<circle cx="62.5" cy="62.5" r="62.5" fill="#F5F5F5"/>
<path d="M62.6094 5.20825C32.3516 5.20825 7.56384 28.539 5.20837 58.1887L36.0808 70.953C38.6967 69.164 41.8568 68.1158 45.2566 68.1158C45.5612 68.1158 45.8646 68.1288 46.1654 68.1432L59.8946 48.2434C59.8946 48.1484 59.8946 48.0559 59.8946 47.9622C59.8946 35.9843 69.6381 26.2395 81.6172 26.2395C93.5951 26.2395 103.339 35.9843 103.339 47.9622C103.339 59.94 93.5951 69.6861 81.6172 69.6861C81.4519 69.6861 81.2878 69.6861 81.1237 69.6731L61.543 83.6444C61.556 83.8984 61.5625 84.1575 61.5625 84.4153C61.5625 93.4075 54.2487 100.72 45.2579 100.72C37.3659 100.72 30.767 95.0872 29.2722 87.6275L7.19275 78.5051C14.0287 102.682 36.2409 120.407 62.6094 120.407C94.4219 120.407 120.21 94.6184 120.21 62.8098C120.21 30.996 94.4206 5.20825 62.6094 5.20825Z" fill="#EA2424"/>
<path d="M41.3034 92.6068L34.2279 89.6836C35.4818 92.2943 37.6511 94.4805 40.5313 95.681C46.7579 98.2748 53.9362 95.3203 56.5313 89.0886C57.7878 86.0755 57.7956 82.7487 56.5495 79.7279C55.306 76.7057 52.9597 74.349 49.9427 73.0912C46.9493 71.8451 43.7422 71.8906 40.9245 72.9544L48.2331 75.9766C52.8256 77.8906 54.9974 83.1641 53.0834 87.7565C51.1732 92.3503 45.8959 94.5222 41.3034 92.6068Z" fill="#EA2424"/>
<path d="M96.0885 47.9622C96.0885 39.9818 89.5964 33.4883 81.6146 33.4883C73.6341 33.4883 67.1406 39.9818 67.1406 47.9622C67.1406 55.944 73.6341 62.4349 81.6146 62.4349C89.5964 62.4349 96.0885 55.9427 96.0885 47.9622ZM70.7656 47.9375C70.7656 41.9323 75.6341 37.0651 81.6393 37.0651C87.6445 37.0651 92.513 41.9323 92.513 47.9375C92.513 53.9427 87.6445 58.8099 81.6393 58.8099C75.6341 58.8099 70.7656 53.9414 70.7656 47.9375Z" fill="#EA2424"/>
</svg>
