<svg width="125" height="125" viewBox="0 0 125 125" fill="none" xmlns="http://www.w3.org/2000/svg">
<circle cx="62.5" cy="62.5" r="62.5" fill="#F5F5F5"/>
<path d="M56.766 118.827C47.9076 117.978 38.9391 114.797 31.2348 109.77C24.7789 105.558 23.321 103.827 23.321 100.371C23.321 93.43 30.9529 81.2728 44.0105 67.4136C51.4264 59.5426 61.7562 50.3165 62.8734 50.5664C65.0447 51.052 82.4073 67.9879 88.907 75.9603C99.1852 88.5674 103.91 98.8898 101.51 103.492C99.6851 106.99 88.3621 113.828 80.0435 116.454C73.1875 118.619 64.1833 119.537 56.766 118.827ZM14.6014 93.1543C9.23668 84.924 6.52622 76.8214 5.2176 65.1023C4.78548 61.2326 4.94033 59.0192 6.19881 51.0766C7.76732 41.1772 13.4048 29.7249 20.1788 22.6769C23.0639 19.6751 23.3216 19.602 26.8384 20.7867C31.109 22.2254 35.6698 25.3752 42.7428 31.7709L46.8696 35.5025L44.6161 38.271C34.1551 51.1224 23.1121 69.3388 18.9503 80.6088C16.6878 86.7357 15.7752 92.8858 16.7487 95.4463C17.406 97.175 16.8022 96.5306 14.6014 93.1543ZM108.77 94.5541C109.3 91.9669 108.629 87.2154 107.058 82.4231C103.656 72.0444 92.2839 52.7367 81.8412 39.6093L78.5539 35.4768L82.1104 32.2111C86.7541 27.9472 89.9782 25.394 93.457 23.2258C96.2022 21.5148 100.125 20.0001 101.811 20.0001C102.851 20.0001 106.511 23.7984 109.466 27.9435C114.042 34.3635 117.408 42.1459 119.114 50.2474C120.216 55.4821 120.308 66.6871 119.291 71.9089C118.457 76.1942 116.696 81.7529 114.978 85.5229C113.691 88.3476 110.489 93.8337 109.086 95.6189C108.365 96.5367 108.364 96.5347 108.77 94.5541ZM57.7144 18.0403C52.8962 15.5935 45.4631 12.967 41.3571 12.2604C39.9176 12.0127 37.4621 11.8745 35.9003 11.9534C32.5125 12.1245 32.6638 11.9473 38.0986 9.37967C42.6169 7.24498 46.3858 5.98969 51.5021 4.91541C57.2576 3.70691 68.0758 3.69273 73.7397 4.88625C79.8571 6.17536 87.0606 8.85603 91.1197 11.354L92.3261 12.0964L89.5582 11.9566C84.0579 11.6789 76.0419 13.901 67.4356 18.0893C64.8397 19.3526 62.5814 20.3615 62.417 20.3314C62.2527 20.3013 60.1365 19.2703 57.7144 18.0403Z" fill="#EA2424"/>
</svg>
